<?xml version="1.0" encoding="UTF-8"?>
<!DOCTYPE svg PUBLIC "-//W3C//DTD SVG 1.1//EN" "http://www.w3.org/Graphics/SVG/1.1/DTD/svg11.dtd">
<!-- Creator: CorelDRAW X7 -->
<svg xmlns="http://www.w3.org/2000/svg" xml:space="preserve" width="67.4998mm" height="67.4998mm" version="1.1" style="shape-rendering:geometricPrecision; text-rendering:geometricPrecision; image-rendering:optimizeQuality; fill-rule:evenodd; clip-rule:evenodd"
viewBox="0 0 6750 6750"
 xmlns:xlink="http://www.w3.org/1999/xlink">
 <defs>
  <style type="text/css">
   <![CDATA[
    .fil0 {fill:#EBECEC}
    .fil4 {fill:black}
    .fil7 {fill:#539E43}
    .fil6 {fill:#53C1DE}
    .fil1 {fill:#599636}
    .fil2 {fill:#6CAC48}
    .fil3 {fill:#C2BFBF}
    .fil5 {fill:#EBECEC}
   ]]>
  </style>
 </defs>
 <g id="Layer_x0020_1">
  <metadata id="CorelCorpID_0Corel-Layer"/>
  <g id="_506708824">
   <circle class="fil0" cx="1500" cy="5250" r="1500"/>
   <circle class="fil0" cx="5250" cy="1500" r="1500"/>
   <circle class="fil0" cx="1500" cy="1500" r="1500"/>
   <g>
    <path class="fil1" d="M1492 266l66 125c15,22 32,43 51,62 55,55 108,113 155,175 112,148 188,311 242,488 32,108 50,219 51,331 6,336 -109,623 -342,863 -37,37 -78,72 -121,104 -23,0 -34,-18 -44,-34 -18,-30 -28,-64 -33,-97 -9,-41 -14,-81 -11,-123l0 -19c-2,-4 -22,-1865 -14,-1875l0 0z"/>
    <path class="fil2" d="M1492 262c-2,-5 -5,-1 -8,1 2,27 -8,52 -23,75 -16,23 -38,40 -59,59 -121,104 -215,230 -291,371 -100,189 -153,392 -167,605 -7,77 24,349 48,427 66,208 185,383 340,534 38,36 79,70 120,103 13,0 14,-11 17,-19 5,-18 9,-35 12,-53 12,-68 19,-135 27,-203l-15 -1900 -1 0z"/>
    <path class="fil3" d="M1559 2496c2,-31 18,-57 33,-82 -16,-7 -28,-21 -37,-35 -9,-14 -15,-31 -21,-45 -19,-57 -23,-116 -28,-174l0 -36c-7,6 -8,52 -8,58 -4,63 -12,123 -24,183 -5,24 -7,49 -22,70 0,3 0,6 1,10 25,71 31,144 35,219l0 27c0,32 -1,25 26,36 11,4 23,5 34,14 8,0 9,-7 9,-13l-4 -44 0 -125c-1,-21 3,-43 6,-63l0 0z"/>
   </g>
   <path class="fil4" d="M6361 2111c-81,21 -131,1 -175,-66l-320 -442 -46 -61 -372 504c-43,61 -88,87 -167,66l477 -641 -444 -578c76,-15 129,-8 176,61l331 447 333 -445c43,-60 89,-83 166,-61l-173 228 -233 304c-28,35 -24,59 2,92l445 592zm-2222 -650l39 -192c106,-380 542,-538 842,-303 176,138 219,333 211,552l-990 0c-14,394 269,631 630,510 127,-43 202,-142 239,-266 19,-62 51,-72 109,-54 -30,155 -97,285 -240,366 -212,122 -516,82 -676,-87 -95,-98 -134,-222 -152,-355 -3,-22 -8,-42 -12,-64 0,-35 0,-71 0,-107l0 0zm104 -27l894 0c-6,-285 -183,-487 -425,-489 -266,-2 -457,196 -469,489l0 0z"/>
   <g>
    <path class="fil5" d="M196 5246c0,197 192,381 495,484 -60,305 -10,551 156,647 170,98 424,30 666,-181 235,202 473,282 639,186 170,-99 222,-361 160,-675 316,-105 492,-262 492,-461 0,-193 -192,-359 -492,-462 67,-328 11,-567 -162,-667 -167,-96 -408,-12 -646,195 -248,-220 -487,-287 -659,-187 -167,96 -214,346 -154,657 -293,102 -495,272 -495,464z"/>
    <path class="fil6" d="M2249 4886c-24,-8 -49,-16 -75,-23 5,-18 8,-35 12,-51 56,-274 19,-495 -107,-568 -120,-69 -318,3 -518,177 -19,17 -38,34 -57,53 -13,-12 -26,-24 -39,-35 -209,-186 -419,-265 -545,-192 -120,70 -156,278 -105,537 5,26 10,51 17,77 -30,9 -58,18 -86,27 -245,86 -402,220 -402,359 0,143 168,287 424,375 20,6 41,13 63,19 -7,28 -14,56 -19,83 -48,255 -10,458 110,527 125,72 333,-2 537,-180 16,-14 32,-29 48,-44 21,20 42,39 62,57 197,169 392,238 512,168 124,-72 165,-289 112,-554 -4,-20 -8,-41 -14,-62 15,-4 29,-9 43,-14 266,-88 439,-230 439,-375 0,-140 -162,-275 -412,-361l0 0 0 0z"/>
    <path class="fil5" d="M2191 5528c-12,5 -25,9 -39,13 -29,-93 -68,-192 -117,-294 46,-99 84,-197 113,-289 24,7 47,14 69,22 214,74 345,183 345,267 0,89 -141,205 -371,281l0 0 0 0zm-95 189c23,117 27,223 11,306 -13,74 -41,124 -75,144 -73,42 -230,-13 -398,-158 -19,-17 -39,-34 -58,-53 65,-72 130,-154 194,-247 112,-10 218,-26 314,-48 4,19 9,38 12,56l0 0 0 0zm-962 442c-71,25 -128,26 -162,6 -73,-42 -104,-204 -62,-423 4,-25 10,-50 16,-77 95,21 200,36 313,46 64,90 131,173 199,245 -15,15 -30,28 -45,41 -89,78 -180,134 -259,162l0 0 0 0zm-334 -631c-113,-39 -206,-89 -270,-144 -58,-49 -87,-98 -87,-137 0,-85 126,-192 336,-265 25,-9 52,-18 80,-25 29,94 67,192 112,292 -46,101 -85,201 -114,297 -20,-6 -39,-12 -57,-18l0 0 0 0zm112 -763c-44,-222 -15,-390 58,-432 78,-45 249,19 430,180 11,10 23,20 34,32 -67,72 -133,154 -197,244 -109,10 -213,26 -309,48 -6,-24 -12,-48 -16,-72l0 0 0 0zm999 247c-23,-39 -46,-78 -70,-116 74,10 144,22 211,37 -20,64 -45,131 -74,200 -21,-40 -43,-80 -67,-121l0 0 0 0zm-407 -397c45,50 91,105 136,165 -45,-2 -91,-3 -137,-3 -46,0 -92,1 -137,3 45,-60 91,-115 138,-165l0 0 0 0zm-410 398c-23,40 -45,80 -66,120 -29,-69 -53,-136 -73,-201 66,-15 136,-27 210,-36 -25,38 -48,77 -71,117l0 0 0 0zm73 591c-76,-8 -148,-20 -214,-34 21,-66 46,-135 75,-205 21,40 43,81 66,120l0 0c23,41 48,81 73,119l0 0 0 0zm339 281c-46,-51 -93,-107 -139,-167 44,2 90,3 136,3 47,0 93,-1 139,-3 -45,61 -90,117 -136,167l0 0 0 0zm473 -523c31,70 57,139 78,204 -68,15 -140,27 -217,36 25,-38 48,-77 72,-117 23,-41 46,-82 67,-123l0 0 0 0zm-153 73c-36,63 -74,123 -111,179 -69,5 -140,8 -212,8 -73,0 -143,-2 -210,-7 -39,-57 -77,-117 -113,-179l0 0c-36,-62 -69,-125 -99,-187 30,-62 63,-125 98,-187l0 0c36,-62 74,-122 113,-178 69,-6 139,-8 211,-8l0 0c71,0 142,2 211,8 38,56 76,116 112,178 36,63 69,125 99,186 -30,62 -63,124 -99,187l0 0 0 0zm204 -1105c78,45 108,225 59,462 -3,15 -7,30 -10,46 -97,-22 -201,-39 -310,-49 -64,-91 -130,-173 -196,-244 18,-18 36,-34 53,-49 171,-149 331,-208 404,-166l0 0 0 0z"/>
    <path class="fil6" d="M1503 5040c114,0 206,92 206,207 0,114 -92,207 -206,207 -115,0 -207,-93 -207,-207 0,-115 92,-207 207,-207z"/>
   </g>
   <g>
    <circle class="fil0" cx="5250" cy="5250" r="1500"/>
    <g>
     <g>
      <path class="fil7" d="M5250 6364c-31,0 -59,-8 -86,-22l-272 -162c-41,-23 -21,-31 -8,-35 55,-18 65,-22 122,-55 7,-4 15,-2 21,2l209 125c8,4 18,4 24,0l817 -473c8,-4 12,-12 12,-23l0 -943c0,-11 -4,-19 -12,-23l-817 -471c-8,-4 -18,-4 -24,0l-817 471c-8,4 -12,14 -12,23l0 943c0,9 4,19 12,23l223 129c121,61 196,-10 196,-82l0 -932c0,-12 11,-24 25,-24l104 0c13,0 25,10 25,24l0 932c0,162 -88,256 -242,256 -47,0 -83,0 -188,-51l-215 -123c-53,-31 -86,-88 -86,-150l0 -943c0,-62 33,-119 86,-150l817 -473c51,-28 121,-28 172,0l817 473c53,31 86,88 86,150l0 943c0,62 -33,119 -86,150l-817 473c-27,12 -57,18 -86,18l0 0zm252 -649c-358,0 -432,-164 -432,-303 0,-12 10,-24 24,-24l107 0c12,0 22,8 22,20 17,109 64,162 281,162 172,0 245,-39 245,-131 0,-53 -20,-92 -288,-119 -223,-22 -363,-72 -363,-250 0,-165 140,-264 373,-264 262,0 391,90 407,287 0,6 -2,12 -6,18 -4,4 -10,8 -16,8l-107 0c-10,0 -20,-8 -22,-18 -25,-113 -88,-149 -256,-149 -188,0 -211,65 -211,114 0,60 27,78 281,111 251,33 370,80 370,256 -2,180 -149,282 -409,282l0 0z"/>
     </g>
    </g>
   </g>
  </g>
 </g>
</svg>
